# xmcd
#
# Track frame offsets: 
#        150
#        13879
#        25733
#        36344
#        49473
#        63905
#        77652
#        91419
#        105109
#        118203
#        129791
#        142450
#        154417
#        168593
#        180441
#        192358
#        204391
#        218490
#        230550
#        241395
#        255482
#        268262
#        288678
#        299900
#        313348
#
# Disc length: 4311 seconds
#
# Revision: 0
# Processed by: cddbd v1.5.2PL0 Copyright (c) Steve Scherf et al.
# Submitted via: ExactAudioCopyFreeDBPlugin 1.0
#
DISCID=8110d519
DTITLE=Lowell Fulson - Trouble, Trouble - The Definitive Early Years C
DTITLE=ollection
DYEAR=2013
DGENRE=Blues
TTITLE0=Don't Leave Me Baby
TTITLE1=Blues Never Fail
TTITLE2=Chuck With The Boys
TTITLE3=You've Gotta Reap
TTITLE4=Reconsider Baby
TTITLE5=I Believe I'll Give It Up
TTITLE6=Check Yourself
TTITLE7=Loving You
TTITLE8=Trouble, Trouble
TTITLE9=I Still Love You Baby
TTITLE10=It's A Long Time
TTITLE11=It's All Your Fault Baby (It's Your Own Fault)
TTITLE12=Tollin' Bells
TTITLE13=(It) Took A Long Time
TTITLE14=Please Don't Go
TTITLE15=Don't Drive Me Baby
TTITLE16=You're Gonna Miss Me
TTITLE17=That's Alright
TTITLE18=Coming Home
TTITLE19=Have You Changed Your Mind
TTITLE20=I'm Glad You Reconsidered
TTITLE21=I Want To Know Parts 1 and 2
TTITLE22=So Many Tears
TTITLE23=Hung Down Head
TTITLE24=Shed No Tears
EXTD=
EXTT0=
EXTT1=
EXTT2=
EXTT3=
EXTT4=
EXTT5=
EXTT6=
EXTT7=
EXTT8=
EXTT9=
EXTT10=
EXTT11=
EXTT12=
EXTT13=
EXTT14=
EXTT15=
EXTT16=
EXTT17=
EXTT18=
EXTT19=
EXTT20=
EXTT21=
EXTT22=
EXTT23=
EXTT24=
PLAYORDER=
